<?xml version="1.0" encoding="UTF-8"?>
<svg width="48" height="48" enable-background="new 0 0 512.062 512.062" viewBox="0 0 512.06 512.06" xmlns="http://www.w3.org/2000/svg">
<path d="m307.12 256.03 15.761-38.593-41.303-5.647-25.543-32.946-25.542 32.946-41.303 5.647 15.761 38.593-15.761 38.593 41.303 5.647 25.542 32.946 25.543-32.946 41.303-5.647z" fill="#beebfa"/>
<path d="m322.88 217.44-41.303-5.647-25.542-32.946v154.37l25.542-32.946 41.303-5.648-15.76-38.593z" fill="#5ecef4"/>
<path d="m478.84 338.06-32.946 10.272-51.204-29.563 54.125-16.875-8.93-28.641-80.539 25.11-24.53-14.162-11.504-28.17 11.504-28.17 31.872-18.401 56.662 17.666 8.93-28.641-30.248-9.431 43.862-25.324 32.946 10.272 8.93-28.641-26.013-8.11 5.982-26.583-29.268-6.587-7.578 33.669-43.862 25.324 6.957-30.911-29.268-6.587-13.032 57.903-31.871 18.401-30.147-4.122-18.645-24.048v-28.324l62.015-57.194-20.338-22.053-41.677 38.437v-59.126l25.368-23.397-20.338-22.052-20.029 18.473-20.03-18.473-20.339 22.053 25.368 23.397v59.126l-41.677-38.437-20.338 22.053 62.015 57.194v28.325l-18.644 24.047-30.148 4.122-31.871-18.401-13.032-57.903-29.268 6.587 6.957 30.911-43.862-25.324-7.578-33.669-29.268 6.587 5.982 26.583-26.013 8.11 8.93 28.641 32.946-10.272 43.861 25.323-30.248 9.43 8.93 28.641 56.662-17.665 31.872 18.401 11.504 28.17-11.502 28.17-24.53 14.162-80.539-25.11-8.93 28.641 54.125 16.875-51.204 29.563-32.946-10.272-8.93 28.641 26.013 8.11-5.982 26.583 29.268 6.587 7.578-33.669 51.204-29.563-12.449 55.311 29.268 6.588 18.525-82.305 24.529-14.162 30.148 4.122 18.644 24.047v36.803l-43.63 40.238 20.339 22.053 23.291-21.48v50.648l-25.368 23.397 20.339 22.053 20.029-18.473 20.029 18.473 20.339-22.053-25.368-23.397v-50.648l23.291 21.48 20.339-22.053-43.63-40.238v-36.802l18.645-24.048 30.147-4.122 24.529 14.162 18.525 82.305 29.268-6.588-12.449-55.311 51.204 29.563 7.578 33.669 29.268-6.587-5.982-26.583 26.013-8.11zm-177.17-55.676-28.203 3.856-17.441 22.496-17.44-22.496-28.204-3.856 10.762-26.353-10.762-26.353 28.204-3.856 17.44-22.496 17.441 22.496 28.203 3.856-10.762 26.353z" fill="#5ecef4"/>
<path d="m478.84 338.06-32.946 10.272-51.204-29.563 54.125-16.874-8.93-28.641-80.538 25.11-24.53-14.163-11.504-28.169 11.504-28.17 31.872-18.401 56.662 17.665 8.93-28.64-30.249-9.431 43.862-25.323 32.946 10.271 8.93-28.64-26.013-8.11 5.983-26.584-29.268-6.586-7.578 33.668-43.862 25.324 6.957-30.911-29.268-6.587-13.032 57.903-31.871 18.401-30.148-4.122-18.644-24.048v-28.324l62.014-57.194-20.337-22.053-41.677 38.437v-59.127l25.368-23.396-20.339-22.053-20.029 18.473v184.85l17.441 22.496 28.203 3.856-10.761 26.353 10.761 26.352-28.203 3.857-17.441 22.496v184.85l20.029 18.474 20.339-22.053-25.368-23.397v-50.648l23.291 21.48 20.339-22.052-43.63-40.239v-36.802l18.644-24.048 30.148-4.122 24.528 14.162 18.525 82.304 29.268-6.587-12.449-55.311 51.204 29.562 7.578 33.669 29.268-6.587-5.983-26.583 26.013-8.11z" fill="#4895ff"/>
</svg>
