<svg width='48px' height='48px' id="Layer_1" enable-background="new 0 0 512 512" height="512" viewBox="0 0 512 512" width="512" xmlns="http://www.w3.org/2000/svg"><g><path d="m410.931 34.423c-18.041 0-35.752 4.877-51.185 13.934-25.626-30.525-63.4-48.357-103.746-48.357s-78.12 17.832-103.746 48.357c-15.432-9.057-33.144-13.934-51.185-13.934-55.73 0-101.069 45.343-101.069 101.077 0 55.729 45.339 101.069 101.069 101.069 12.992 0 25.808-2.542 37.729-7.34l133.583-133.582c19.261-19.264 42.875-13.148 52.569-8.111 17.503 9.098 26.976 28.261 23.576 47.688l-18.884 107.909h8.677c7.806-5.98 15-12.838 21.428-20.497 15.432 9.057 33.143 13.933 51.183 13.933 55.73 0 101.07-45.34 101.07-101.069 0-55.734-45.34-101.077-101.069-101.077z"/><path d="m384.533 273.133h-90.596l25.039-143.081c1.128-6.445-2.052-12.878-7.857-15.896-5.809-3.018-12.899-1.922-17.524 2.703l-208.868 208.868c-4.29 4.29-5.573 10.742-3.252 16.347 2.322 5.605 7.791 9.26 13.858 9.26h90.596l-25.039 143.081c-1.128 6.445 2.052 12.878 7.857 15.896 5.809 3.018 12.899 1.922 17.524-2.703l208.869-208.869c4.29-4.29 5.573-10.742 3.252-16.347-2.323-5.604-7.791-9.259-13.859-9.259z"/></g></svg>